<svg width="535" height="185" viewBox="0 0 535 185" fill="none" xmlns="http://www.w3.org/2000/svg">
<g clip-path="url(#clip0_87_5)">
<path d="M235.93 179.305C237.578 179.305 238.91 179.04 239.924 178.512C240.939 177.984 241.574 177.604 241.826 177.37L244.522 181.333C244.31 181.524 243.808 181.825 243.016 182.238C242.223 182.65 241.208 183.025 239.972 183.363C238.736 183.701 237.335 183.869 235.772 183.869C233.383 183.869 231.163 183.336 229.115 182.269C227.064 181.201 225.409 179.643 224.153 177.593C222.895 175.543 222.266 173.038 222.266 170.079C222.266 167.099 222.895 164.59 224.153 162.55C225.409 160.511 227.064 158.963 229.115 157.906C231.163 156.849 233.383 156.321 235.772 156.321C237.314 156.321 238.688 156.506 239.893 156.875C241.098 157.245 242.091 157.652 242.872 158.096C243.655 158.539 244.172 158.878 244.426 159.111L241.7 163.074C241.531 162.905 241.208 162.645 240.733 162.296C240.257 161.948 239.618 161.625 238.815 161.329C238.011 161.034 237.05 160.886 235.93 160.886C234.577 160.886 233.262 161.25 231.983 161.98C230.704 162.708 229.653 163.76 228.828 165.134C228.004 166.508 227.592 168.157 227.592 170.079C227.592 172.003 228.004 173.657 228.828 175.04C229.653 176.425 230.704 177.482 231.983 178.211C233.262 178.94 234.577 179.305 235.93 179.305Z" fill="#000651"/>
<path d="M260.752 179.145C262.443 179.145 263.917 178.754 265.175 177.972C266.432 177.191 267.41 176.118 268.107 174.754C268.805 173.391 269.153 171.854 269.153 170.142C269.153 168.43 268.805 166.887 268.107 165.513C267.41 164.14 266.432 163.051 265.175 162.249C263.917 161.445 262.443 161.043 260.752 161.043C259.04 161.043 257.551 161.445 256.282 162.249C255.015 163.051 254.026 164.14 253.318 165.513C252.609 166.887 252.256 168.43 252.256 170.142C252.256 171.854 252.609 173.391 253.318 174.754C254.026 176.118 255.015 177.191 256.282 177.972C257.551 178.754 259.04 179.145 260.752 179.145ZM260.752 183.869C258.068 183.869 255.685 183.267 253.604 182.062C251.522 180.857 249.889 179.225 248.705 177.164C247.522 175.103 246.93 172.773 246.93 170.173C246.93 167.574 247.522 165.228 248.705 163.136C249.889 161.043 251.522 159.384 253.604 158.159C255.685 156.933 258.068 156.32 260.752 156.32C263.415 156.32 265.777 156.933 267.838 158.159C269.898 159.384 271.51 161.043 272.672 163.136C273.834 165.228 274.416 167.574 274.416 170.173C274.416 172.773 273.834 175.103 272.672 177.164C271.51 179.225 269.898 180.857 267.838 182.062C265.777 183.267 263.415 183.869 260.752 183.869Z" fill="#000651"/>
<path d="M293.785 156.321C295.497 156.321 297.162 156.68 298.778 157.399C300.395 158.118 301.726 159.254 302.773 160.806C303.819 162.36 304.343 164.384 304.343 166.878V183.109H298.763V167.956C298.763 165.378 298.16 163.502 296.956 162.329C295.751 161.156 294.197 160.569 292.296 160.569C291.048 160.569 289.848 160.924 288.697 161.632C287.545 162.34 286.599 163.311 285.86 164.548C285.12 165.784 284.75 167.184 284.75 168.748V183.109H279.234V157.082H284.75V161.711C284.94 160.992 285.458 160.21 286.304 159.364C287.148 158.519 288.226 157.8 289.537 157.209C290.847 156.617 292.264 156.321 293.785 156.321Z" fill="#000651"/>
<path d="M320.067 156.32C321.42 156.32 322.682 156.458 323.855 156.732C325.028 157.007 326.044 157.335 326.899 157.715C327.755 158.095 328.362 158.433 328.722 158.729L326.535 162.216C326.112 161.837 325.35 161.408 324.252 160.932C323.153 160.457 321.926 160.219 320.574 160.219C319.094 160.219 317.837 160.51 316.801 161.091C315.766 161.673 315.249 162.512 315.249 163.611C315.249 164.711 315.782 165.583 316.849 166.227C317.917 166.872 319.348 167.405 321.145 167.828C322.582 168.166 323.929 168.621 325.187 169.191C326.444 169.761 327.464 170.549 328.247 171.552C329.028 172.557 329.42 173.894 329.42 175.563C329.42 177.085 329.102 178.38 328.468 179.447C327.835 180.514 326.978 181.37 325.901 182.014C324.822 182.66 323.618 183.13 322.286 183.425C320.955 183.721 319.602 183.869 318.228 183.869C316.622 183.869 315.174 183.705 313.885 183.378C312.595 183.05 311.512 182.66 310.635 182.205C309.758 181.751 309.119 181.354 308.717 181.016L310.905 177.085C311.455 177.613 312.358 178.174 313.616 178.765C314.873 179.357 316.305 179.653 317.912 179.653C319.686 179.653 321.124 179.278 322.222 178.527C323.322 177.777 323.872 176.799 323.872 175.595C323.872 174.686 323.607 173.958 323.079 173.408C322.55 172.858 321.842 172.415 320.955 172.076C320.067 171.738 319.094 171.442 318.038 171.188C317.024 170.956 316.036 170.649 315.074 170.269C314.112 169.888 313.235 169.397 312.443 168.795C311.65 168.192 311.021 167.453 310.556 166.576C310.091 165.699 309.859 164.669 309.859 163.485C309.859 161.984 310.335 160.7 311.286 159.633C312.237 158.566 313.483 157.747 315.026 157.175C316.569 156.605 318.249 156.32 320.067 156.32Z" fill="#000651"/>
<path d="M331.891 157.081H336.995V146.397H342.48V157.081H349.169V161.805H342.48V174.676C342.48 176.197 342.749 177.318 343.288 178.036C343.828 178.755 344.551 179.114 345.459 179.114C346.263 179.114 346.886 178.967 347.33 178.67C347.774 178.375 348.038 178.174 348.122 178.068L350.31 182.126C350.183 182.231 349.845 182.433 349.295 182.728C348.745 183.024 348.038 183.288 347.171 183.52C346.305 183.753 345.29 183.869 344.128 183.869C342.099 183.869 340.404 183.251 339.04 182.015C337.677 180.778 336.995 178.818 336.995 176.134V161.805H331.891V157.081Z" fill="#000651"/>
<path d="M359.25 183.109H353.766V157.082H359.25V161.584H359.091C359.197 161.034 359.588 160.347 360.265 159.523C360.94 158.699 361.87 157.959 363.054 157.303C364.237 156.649 365.653 156.321 367.302 156.321C368.507 156.321 369.569 156.485 370.488 156.812C371.407 157.14 372.058 157.463 372.438 157.779L370.188 162.344C369.891 162.048 369.373 161.748 368.634 161.441C367.894 161.134 366.975 160.981 365.876 160.981C364.48 160.981 363.286 161.415 362.293 162.281C361.3 163.148 360.544 164.188 360.026 165.404C359.509 166.619 359.25 167.745 359.25 168.78V183.109Z" fill="#000651"/>
<path d="M379.919 170.206C379.919 172.933 380.506 175.103 381.679 176.721C382.852 178.338 384.653 179.145 387.084 179.145C389.535 179.145 391.342 178.338 392.505 176.721C393.667 175.103 394.248 172.933 394.248 170.206V157.081H399.701V170.967C399.701 173.503 399.21 175.743 398.228 177.687C397.244 179.632 395.817 181.148 393.947 182.237C392.077 183.325 389.789 183.869 387.084 183.869C384.399 183.869 382.122 183.325 380.252 182.237C378.382 181.148 376.955 179.632 375.972 177.687C374.989 175.743 374.498 173.503 374.498 170.967V157.081H379.919V170.206Z" fill="#000651"/>
<path d="M403.441 157.081H408.545V146.397H414.03V157.081H420.719V161.805H414.03V174.676C414.03 176.197 414.299 177.318 414.838 178.036C415.378 178.755 416.101 179.114 417.009 179.114C417.813 179.114 418.436 178.967 418.88 178.67C419.324 178.375 419.588 178.174 419.672 178.068L421.86 182.126C421.733 182.231 421.395 182.433 420.845 182.728C420.295 183.024 419.588 183.288 418.721 183.52C417.855 183.753 416.84 183.869 415.678 183.869C413.649 183.869 411.954 183.251 410.59 182.015C409.227 180.778 408.545 178.818 408.545 176.134V161.805H403.441V157.081Z" fill="#000651"/>
<path d="M437.426 179.145C439.116 179.145 440.59 178.754 441.848 177.972C443.106 177.191 444.083 176.118 444.78 174.754C445.478 173.391 445.826 171.854 445.826 170.142C445.826 168.43 445.478 166.887 444.78 165.513C444.083 164.14 443.106 163.051 441.848 162.249C440.59 161.445 439.116 161.043 437.426 161.043C435.714 161.043 434.224 161.445 432.955 162.249C431.688 163.051 430.699 164.14 429.991 165.513C429.283 166.887 428.929 168.43 428.929 170.142C428.929 171.854 429.283 173.391 429.991 174.754C430.699 176.118 431.688 177.191 432.955 177.972C434.224 178.754 435.714 179.145 437.426 179.145ZM437.426 183.869C434.741 183.869 432.359 183.267 430.277 182.062C428.195 180.857 426.562 179.225 425.379 177.164C424.195 175.103 423.604 172.773 423.604 170.173C423.604 167.574 424.195 165.228 425.379 163.136C426.562 161.043 428.195 159.384 430.277 158.159C432.359 156.933 434.741 156.32 437.426 156.32C440.088 156.32 442.45 156.933 444.511 158.159C446.572 159.384 448.183 161.043 449.346 163.136C450.508 165.228 451.089 167.574 451.089 170.173C451.089 172.773 450.508 175.103 449.346 177.164C448.183 179.225 446.572 180.857 444.511 182.062C442.45 183.267 440.088 183.869 437.426 183.869Z" fill="#000651"/>
<path d="M461.33 183.109H455.846V157.082H461.33V161.584H461.171C461.277 161.034 461.668 160.347 462.345 159.523C463.02 158.699 463.95 157.959 465.134 157.303C466.317 156.649 467.733 156.321 469.382 156.321C470.587 156.321 471.649 156.485 472.568 156.812C473.487 157.14 474.138 157.463 474.518 157.779L472.268 162.344C471.971 162.048 471.453 161.748 470.714 161.441C469.974 161.134 469.055 160.981 467.956 160.981C466.56 160.981 465.366 161.415 464.373 162.281C463.38 163.148 462.624 164.188 462.106 165.404C461.589 166.619 461.33 167.745 461.33 168.78V183.109Z" fill="#000651"/>
<path d="M479.907 170.11C479.907 171.992 480.319 173.619 481.143 174.993C481.968 176.367 483.041 177.428 484.361 178.178C485.682 178.929 487.093 179.304 488.594 179.304C490.2 179.304 491.637 178.923 492.905 178.163C494.174 177.402 495.177 176.33 495.917 174.945C496.656 173.561 497.026 171.949 497.026 170.11C497.026 168.272 496.656 166.66 495.917 165.276C495.177 163.892 494.174 162.814 492.905 162.043C491.637 161.271 490.2 160.885 488.594 160.885C487.093 160.885 485.682 161.265 484.361 162.026C483.041 162.787 481.968 163.855 481.143 165.228C480.319 166.602 479.907 168.229 479.907 170.11ZM497.153 183.108V178.036C496.984 178.564 496.493 179.294 495.679 180.223C494.865 181.154 493.756 181.994 492.35 182.744C490.945 183.494 489.291 183.869 487.389 183.869C484.979 183.869 482.798 183.298 480.843 182.157C478.887 181.016 477.334 179.415 476.182 177.354C475.03 175.294 474.455 172.88 474.455 170.11C474.455 167.341 475.03 164.927 476.182 162.867C477.334 160.805 478.887 159.2 480.843 158.047C482.798 156.896 484.979 156.32 487.389 156.32C489.27 156.32 490.902 156.658 492.287 157.335C493.671 158.011 494.781 158.793 495.616 159.68C496.45 160.568 496.942 161.329 497.09 161.963V157.081H502.543V183.108H497.153Z" fill="#000651"/>
<path d="M91.9 -7.62939e-05C91.9 7.32992 88.11 13.7789 82.39 17.4889C82.23 17.5999 82.07 17.6989 81.91 17.7999C80.21 18.1299 79.14 19.1989 77.64 19.7789C77.63 19.7899 77.62 19.7899 77.61 19.7899C77.34 19.8899 77.06 19.9699 76.78 20.0399C76.67 20.0689 76.54 20.0899 76.42 20.1089C75.37 20.2699 74.36 20.4699 73.4 20.7099C64.62 22.9299 59.77 28.6489 58.96 37.8399V117.34C58.96 129.81 48.85 139.92 36.38 139.92V20.8499H0C0 15.0899 2.33 9.87993 6.11 6.09993C9.88 2.32993 15.09 -7.62939e-05 20.85 -7.62939e-05H91.9Z" fill="#000651"/>
<path d="M76.4204 20.1099C76.5404 20.0899 76.6704 20.0699 76.7804 20.0409C75.6904 20.3599 74.5604 20.5899 73.4004 20.7109C74.3604 20.4699 75.3704 20.2699 76.4204 20.1099Z" fill="#000651"/>
<path d="M81.9106 17.8003C80.5806 18.6193 79.1506 19.2903 77.6406 19.7793C79.1406 19.1993 80.2106 18.1303 81.9106 17.8003Z" fill="#000651"/>
<path d="M116.43 139.92H93.6504V50.9999H116.43V139.92Z" fill="#000651"/>
<path d="M194.211 109.921C192.051 113.961 189.091 117.12 185.421 119.331C181.741 121.53 177.501 122.651 172.801 122.651C168.431 122.651 164.251 121.541 160.391 119.351C156.531 117.16 153.351 114.001 150.931 109.971C148.521 105.95 147.301 101.091 147.301 95.511C147.301 89.941 148.521 85.07 150.931 81.061C153.351 77.011 156.541 73.841 160.411 71.61C164.261 69.391 168.431 68.271 172.801 68.271C177.491 68.271 181.731 69.4 185.401 71.631C189.091 73.87 192.051 77.061 194.211 81.101C196.391 85.181 197.491 90.03 197.491 95.511C197.491 100.99 196.391 105.841 194.211 109.921ZM197.701 51.001V60.641C197.561 60.481 197.411 60.331 197.261 60.171C194.381 57.101 190.521 54.381 185.811 52.07C181.021 49.731 175.341 48.551 168.921 48.551C160.731 48.551 153.211 50.541 146.541 54.461C139.881 58.391 134.521 63.931 130.611 70.941C126.701 77.921 124.721 86.191 124.721 95.511C124.721 104.831 126.701 113.101 130.611 120.091C134.521 127.091 139.891 132.62 146.551 136.511C153.211 140.401 160.741 142.37 168.921 142.37C175.441 142.37 181.211 141.051 186.091 138.45C190.871 135.901 194.721 132.981 197.531 129.761C197.651 129.62 197.781 129.481 197.901 129.331V138.641C197.901 143.681 196.891 148.251 194.901 152.24C192.931 156.16 190.051 159.311 186.311 161.61C182.581 163.901 177.891 165.07 172.401 165.07C166.591 165.07 161.861 164.401 158.351 163.081C154.851 161.771 152.081 160.2 150.111 158.41C148.021 156.521 146.371 154.74 145.181 153.11L143.501 150.811L128.221 165.421L129.481 167.181C132.041 170.771 135.491 173.941 139.741 176.591C143.931 179.2 148.881 181.24 154.451 182.671C159.981 184.07 166.221 184.791 173.011 184.791C181.731 184.791 189.731 183.07 196.781 179.691C203.931 176.261 209.691 171.141 213.911 164.461C218.111 157.811 220.251 149.561 220.281 139.921V51.001H197.701Z" fill="#000651"/>
<path d="M317.071 51.0001V98.2701C317.071 106.8 315.381 114.47 312.051 121.069C308.671 127.75 303.701 133.029 297.271 136.77C290.891 140.489 283.021 142.369 273.891 142.369C264.831 142.369 256.991 140.489 250.611 136.77C244.181 133.029 239.211 127.75 235.831 121.069C232.501 114.479 230.811 106.81 230.811 98.2701V51.0001H253.291V95.8191C253.291 104.029 255.041 110.6 258.491 115.35C261.801 119.92 266.841 122.14 273.891 122.14C281.001 122.14 286.061 119.92 289.341 115.359C292.761 110.609 294.491 104.029 294.491 95.8191V51.0001H317.071Z" fill="#000651"/>
<path d="M347.451 77.39C348.941 74.5 351.341 71.99 354.591 69.92C357.821 67.869 362.231 66.84 367.721 66.84C372.961 66.84 377.121 67.89 380.081 69.96C383.101 72.08 385.311 74.63 386.651 77.54L389.251 83.2H345.221C345.671 81.34 346.421 79.39 347.451 77.39ZM497.711 64.11C494.081 58.73 489.401 54.74 483.771 52.24C478.261 49.79 472.501 48.55 466.661 48.55C461.421 48.55 456.461 49.59 451.931 51.63C447.451 53.66 443.691 56.17 440.771 59.09C440.511 59.35 440.261 59.6 440.031 59.85V51H417.241V81.29C414.451 115.45 393.081 125.65 376.991 125.65C360.741 125.65 348.171 116.09 344.101 101.6C344.161 101.6 344.221 101.59 344.281 101.59H398.501C405.311 101.59 410.741 95.85 410.281 89.05C409.861 82.78 408.621 75.33 405.431 69.59C401.761 62.98 396.741 57.7 390.251 54.03C383.801 50.39 376.151 48.55 367.511 48.55C358.101 48.55 349.911 50.59 343.181 54.63C336.421 58.67 331.211 64.26 327.671 71.23C324.161 78.13 322.391 85.95 322.391 94.49C322.391 94.71 322.411 94.94 322.441 95.17H322.391C323.051 127.93 347.841 144.75 376.991 144.75C392.791 144.75 407.131 138.58 417.241 128.38V139.92H440.031V91.119C440.031 86.55 441.111 82.43 443.251 78.86C445.411 75.24 448.211 72.36 451.561 70.3C454.861 68.27 458.321 67.24 461.851 67.24C467.361 67.24 471.701 68.869 475.131 72.21C478.501 75.48 480.201 80.99 480.201 88.56V139.92H487.781C496.281 139.92 503.191 133 503.191 124.51V85.08C503.191 76.57 501.351 69.52 497.711 64.11Z" fill="#000651"/>
<path d="M82.3902 17.4898V17.7298C82.2202 17.7508 82.0602 17.7698 81.9102 17.8008C82.0702 17.6998 82.2302 17.5998 82.3902 17.4898Z" fill="#000651"/>
<path d="M497.797 144.439C497.797 144.439 511.839 139.319 512.144 123.47C512.146 123.383 512.486 123.423 512.486 123.423L534.736 123.428C534.705 127.629 536.347 141.082 520.948 144.434C520.942 144.435 497.797 144.439 497.797 144.439Z" fill="#EBAD20"/>
<path d="M115.146 27.9126C115.146 33.4936 110.622 38.0176 105.041 38.0176C99.4595 38.0176 94.9355 33.4936 94.9355 27.9126C94.9355 22.3316 99.4595 17.8076 105.041 17.8076C110.622 17.8076 115.146 22.3316 115.146 27.9126Z" fill="#EBAD20"/>
</g>
<defs>
<clipPath id="clip0_87_5">
<rect width="534.773" height="184.79" fill="white"/>
</clipPath>
</defs>
</svg>
